<svg width="220" height="132" viewBox="0 0 220 132" fill="none" xmlns="http://www.w3.org/2000/svg">
<g clip-path="url(#clip0_6_2)">
<path d="M152.575 -3.09944e-06L113.025 13.6042V60.9548C111.3 60.1412 109.004 60.0122 106.721 60.773C102.774 62.0886 100.375 65.5548 101.361 68.5154C102.348 71.476 106.347 72.8084 110.295 71.4929C113.819 70.3187 116.101 67.4306 115.85 64.7177V22.0924L149.75 10.4186V41.193C148.022 40.3682 145.714 40.2335 143.42 40.9981C139.472 42.3136 137.073 45.7799 138.06 48.7405C139.047 51.7011 143.046 53.0335 146.993 51.718C150.313 50.6116 152.529 47.9843 152.566 45.4164H152.575V-3.09944e-06ZM81.0083 0.434104V40.9256C79.2483 40.0856 76.7887 40.0113 74.4515 40.791C70.4315 42.1309 67.987 45.6612 68.9917 48.6764C69.9965 51.6916 74.0701 53.0495 78.091 51.7095C81.4716 50.5824 83.7852 47.9071 83.8229 45.2912H83.8333V13.6174C83.8333 13.6174 96.0052 17.1401 99.8415 30.5673C99.8415 15.222 86.6582 12.6757 81.0083 0.434104ZM98.3565 66.3505H65V68.2338H98.4064C98.3085 67.6109 98.2917 66.9778 98.3565 66.3505ZM155.4 68.2338V66.3505H118.581C118.472 66.9984 118.285 67.6308 118.024 68.2338H155.4ZM67.8984 52.2256H65V54.1089H70.5276C69.5096 53.6371 68.6179 53.0015 67.8984 52.2256ZM155.4 54.1089V52.2256H151.851C150.93 52.9827 149.862 53.6258 148.671 54.1089H155.4ZM136.944 52.2256H118.675V54.1089H139.537C138.558 53.6571 137.677 53.0172 136.944 52.2256V52.2256ZM82.9763 52.2256C81.9983 53.0105 80.9088 53.6452 79.7436 54.1089H110.2V52.2256H82.9763ZM86.6582 38.1006H110.2V39.9839H86.6582V38.1006ZM73.5927 38.1006H65V39.9839H69.9437C70.9852 39.2071 72.199 38.5639 73.5588 38.11C73.5701 38.1063 73.5814 38.1044 73.5927 38.1006ZM118.675 39.9839H139.224C140.237 39.2707 141.35 38.7094 142.526 38.3182L143.276 38.1006H118.675V39.9839ZM93.4853 23.9757H86.6582V25.859H94.7518C94.3498 25.1885 93.926 24.5614 93.4853 23.9757ZM65 23.9757H78.1833V25.859H65V23.9757ZM118.675 25.859H146.925V23.9757H119.057L118.675 24.1075V25.859ZM102.244 25.859H110.2V23.9757H101.821L102.244 25.859ZM93.9411 11.7341H110.917C111.238 11.3688 111.648 11.0927 112.107 10.9327L115.253 9.85073H92.0125L93.9411 11.7341ZM65 9.85073H78.1833V11.7341H65V9.85073Z" fill="#9F9160"/>
<path d="M27.7943 124.563C28.2278 124.563 29.1431 124.756 29.1431 126.249V130.055C29.1431 131.548 28.2278 131.741 27.7943 131.741H11.8981C9.77858 131.741 7.94811 131.452 6.503 130.922C5.00915 130.418 3.70044 129.479 2.74571 128.224C1.7823 127.02 1.10792 125.43 0.674385 123.503C0.240852 121.625 0 119.313 0 116.615V93.686C0 92.1445 0.963407 92 1.39694 92H5.82861C6.21398 92 7.17738 92.1445 7.17738 93.686V117.434C7.17738 118.879 7.22555 120.083 7.41823 121.047C7.56275 121.914 7.85177 122.636 8.23713 123.166C8.57432 123.696 9.05603 124.033 9.63407 124.226C10.3085 124.467 11.1274 124.563 12.1389 124.563H27.7943ZM69.5207 92C69.906 92 70.2432 92.2409 70.3877 92.6262C70.4841 93.0116 70.4359 93.3969 70.2432 93.7341L55.6476 119.505V130.055C55.6476 131.548 54.6842 131.692 54.2988 131.692H49.8672C49.4818 131.692 48.5184 131.548 48.5184 130.055V119.505L34.0673 93.7341C33.9741 93.5759 33.9134 93.4007 33.8886 93.2188C33.8638 93.0368 33.8754 92.8518 33.9228 92.6744C34.0191 92.2409 34.3563 92 34.7898 92H40.2813C40.7148 92 41.2928 92.1445 41.6782 92.9152L52.1793 112.183L62.7768 92.8671C63.1622 92.1445 63.7402 92 64.1738 92H69.5207V92ZM115.679 129.621C115.871 129.91 115.92 130.295 115.871 130.777C115.775 131.355 115.342 131.741 114.763 131.741H109.465C109.031 131.741 108.694 131.644 108.453 131.452C108.26 131.307 108.116 131.066 107.923 130.777L99.2044 115.314H89.0405V130.055C89.0405 131.548 88.1253 131.741 87.6917 131.741H83.3082C82.8747 131.741 81.9113 131.548 81.9113 130.055V109.823C81.9113 108.33 82.8747 108.185 83.3082 108.185H104.262C105.515 108.185 106.334 107.848 106.815 107.126C107.345 106.403 107.586 105.247 107.586 103.657C107.586 102.068 107.345 100.912 106.815 100.189C106.334 99.4664 105.515 99.1292 104.262 99.1292H83.3082C82.8747 99.1292 81.9113 98.9847 81.9113 97.4914V93.686C81.9113 92.1445 82.8747 92 83.3082 92H105.515C108.79 92 111.199 93.0116 112.644 95.0829C113.945 97.0579 114.667 99.8518 114.763 103.513V103.802C114.667 107.511 113.945 110.305 112.644 112.232C111.44 113.869 109.609 114.881 107.249 115.17L115.679 129.621ZM133.175 92C133.561 92 134.524 92.1927 134.524 93.686V130.055C134.524 131.548 133.561 131.741 133.175 131.741H128.744C128.358 131.741 127.395 131.548 127.395 130.055V93.686C127.395 92.1927 128.358 92 128.744 92H133.175V92ZM169.073 115.17L177.407 129.621C177.599 129.862 177.647 130.247 177.599 130.729C177.551 131.355 177.166 131.741 176.491 131.741H171.289C170.807 131.741 170.47 131.644 170.277 131.452C170.085 131.307 169.892 131.066 169.748 130.777L162.233 117.578C161.703 116.615 161.173 115.989 160.643 115.7C160.065 115.363 159.198 115.218 158.042 115.218H153.177V130.055C153.177 131.548 152.214 131.741 151.828 131.741H147.396C147.011 131.741 146 131.548 146 130.055V93.686C146 92.1445 147.011 92 147.396 92H151.828C152.214 92 153.177 92.1445 153.177 93.686V108.089H157.609C158.235 108.089 158.765 108.041 159.15 107.993C159.535 107.944 159.873 107.848 160.162 107.704C160.402 107.559 160.691 107.318 160.932 107.029L161.751 105.825L169.025 92.9634C169.169 92.6262 169.362 92.4335 169.555 92.289C169.748 92.0963 170.085 92 170.615 92H175.383C175.961 92 176.347 92.289 176.491 92.8189C176.54 93.2524 176.491 93.6378 176.347 93.975L168.399 107.944L167.098 110.112L166.183 111.364C167.146 112.28 168.11 113.58 169.073 115.17ZM212.389 107.993C214.894 107.993 216.821 108.908 218.121 110.642C219.374 112.376 220 114.833 220 117.964V122.203C220 124.997 219.374 127.261 218.17 128.995C216.917 130.777 214.942 131.692 212.293 131.692H190.568C190.134 131.692 189.171 131.548 189.171 130.055V126.201C189.171 124.708 190.134 124.563 190.568 124.563H211.137C211.956 124.563 212.245 124.226 212.437 123.937C212.726 123.455 212.871 122.781 212.871 121.914V117.771C212.871 115.411 211.907 115.122 211.185 115.122H196.734C194.711 115.122 192.495 114.833 191.001 112.858C189.797 111.172 189.123 108.474 189.123 105.151V101.49C189.123 98.6957 189.749 96.3835 191.001 94.6494C192.254 92.8671 194.181 92 196.83 92H217.592C217.977 92 218.94 92.1445 218.94 93.6378V97.4914C218.94 98.9847 217.977 99.1292 217.592 99.1292H197.986C197.167 99.1292 196.878 99.4664 196.686 99.7554C196.445 100.237 196.3 100.912 196.3 101.779V105.343C196.3 107.704 197.215 107.993 197.938 107.993H212.389V107.993Z" fill="url(#paint0_linear_6_2)"/>
</g>
<defs>
<linearGradient id="paint0_linear_6_2" x1="0" y1="92" x2="220" y2="92" gradientUnits="userSpaceOnUse">
<stop stop-color="#8F5E25"/>
<stop offset="0.5" stop-color="#CFCA86"/>
<stop offset="1" stop-color="#8F5E25"/>
</linearGradient>
<clipPath id="clip0_6_2">
<rect width="220" height="131.741" fill="white"/>
</clipPath>
</defs>
</svg>
